# xmcd
#
# Track frame offsets: 
#        150
#        17145
#        29076
#        44907
#        56313
#        70044
#        84413
#        99607
#        115486
#        130369
#        145527
#        163046
#        175952
#        189271
#        201239
#        215699
#        233411
#        250605
#
# Disc length: 3519 seconds
#
# Revision: 1
# Processed by: cddbd v1.5PL3 Copyright (c) Steve Scherf et al.
# Submitted via: ExactAudioCopy v0.95a4
#
DISCID=fe0dbd12
DTITLE=理查得 - 钢琴王子理查得―命运
DYEAR=1900
DGENRE=
TTITLE0=命运
TTITLE1=致爱丽丝
TTITLE2=秋日的私语
TTITLE3=罗密欧与朱丽叶
TTITLE4=托卡塔曲
TTITLE5=爱的纪念
TTITLE6=爱之梦
TTITLE7=的郎的微笑
TTITLE8=伤感乐曲
TTITLE9=情歌
TTITLE10=爱的协奏曲
TTITLE11=玫瑰色的人生
TTITLE12=一路平安玛丽亚
TTITLE13=梦中的鸟
TTITLE14=记忆
TTITLE15=遗忘
TTITLE16=电话诉衷情
TTITLE17=当男人爱上女人
EXTD=
EXTT0=
EXTT1=
EXTT2=
EXTT3=
EXTT4=
EXTT5=
EXTT6=
EXTT7=
EXTT8=
EXTT9=
EXTT10=
EXTT11=
EXTT12=
EXTT13=
EXTT14=
EXTT15=
EXTT16=
EXTT17=
PLAYORDER=
